<svg width="103" height="72" viewBox="0 0 103 72" fill="none" xmlns="http://www.w3.org/2000/svg">
<path d="M73.8185 16.1847C73.6232 16.179 73.4287 16.2126 73.2466 16.2833C73.0645 16.3541 72.8985 16.4607 72.7583 16.5967C72.6182 16.7327 72.5068 16.8955 72.4307 17.0753C72.3546 17.2551 72.3154 17.4484 72.3154 17.6436C72.3154 17.8388 72.3546 18.0321 72.4307 18.2119C72.5068 18.3917 72.6182 18.5545 72.7583 18.6905C72.8985 18.8265 73.0645 18.9331 73.2466 19.0038C73.4287 19.0746 73.6232 19.1082 73.8185 19.1025C80.7617 19.1103 87.4183 21.8698 92.3279 26.7756C97.2375 31.6813 99.9992 38.3327 100.007 45.2705C100.007 45.6576 100.161 46.0289 100.435 46.3026C100.709 46.5763 101.08 46.73 101.468 46.73C101.855 46.73 102.227 46.5763 102.5 46.3026C102.774 46.0289 102.928 45.6576 102.928 45.2705C102.92 37.5588 99.8506 30.1652 94.3932 24.7123C88.9357 19.2594 81.5363 16.1925 73.8185 16.1847Z" fill="#FF7E31"/>
<path d="M83.7456 26.8705C83.472 27.1444 83.3184 27.5155 83.3184 27.9025C83.3184 28.2895 83.472 28.6606 83.7456 28.9345C88.6499 33.846 91.4041 40.5008 91.4041 47.4388C91.4041 54.3769 88.6499 61.0317 83.7456 65.9432C83.4763 66.2178 83.3262 66.5876 83.3282 66.9721C83.3301 67.3567 83.4839 67.7249 83.756 67.9968C84.0281 68.2687 84.3966 68.4223 84.7815 68.4243C85.1663 68.4262 85.5363 68.2763 85.8112 68.0072C91.2631 62.5484 94.3251 55.1515 94.3251 47.4395C94.3251 39.7275 91.2631 32.3305 85.8112 26.8717C85.5371 26.5984 85.1657 26.4448 84.7784 26.4448C84.3911 26.4448 84.0197 26.5984 83.7456 26.8717" fill="#FF7E31"/>
<path d="M85.2642 41.4412C84.8769 41.4415 84.5056 41.5954 84.2317 41.869C83.9579 42.1427 83.8039 42.5137 83.8036 42.9007C83.8036 57.33 70.7327 69.0687 56.2921 69.0687C56.0968 69.0631 55.9023 69.0966 55.7203 69.1674C55.5382 69.2381 55.3721 69.3447 55.232 69.4807C55.0918 69.6168 54.9804 69.7795 54.9043 69.9593C54.8283 70.1391 54.7891 70.3324 54.7891 70.5276C54.7891 70.7228 54.8283 70.9161 54.9043 71.0959C54.9804 71.2757 55.0918 71.4385 55.232 71.5745C55.3721 71.7105 55.5382 71.8171 55.7203 71.8879C55.9023 71.9586 56.0968 71.9922 56.2921 71.9865C72.3433 71.9865 86.7236 58.9381 86.7236 42.8995C86.7233 42.5125 86.5693 42.1414 86.2955 41.8678C86.0216 41.5941 85.6503 41.4403 85.263 41.4399" fill="#FF7E31"/>
<path d="M76.4642 54.3437C76.4648 54.1519 76.4272 53.962 76.3538 53.7848C76.2803 53.6077 76.1724 53.4469 76.0364 53.3117C75.7582 53.0461 75.3883 52.8979 75.0036 52.8979C74.6189 52.8979 74.249 53.0461 73.9708 53.3117C71.476 55.8267 68.4916 57.8039 65.2019 59.121C61.9122 60.4381 58.3872 61.0671 54.8446 60.9692C54.6531 60.9596 54.4618 60.9899 54.2827 61.0582C54.1036 61.1265 53.9407 61.2314 53.8044 61.366C53.5942 61.5649 53.4479 61.8216 53.3839 62.1036C53.3198 62.3857 53.3411 62.6804 53.4448 62.9504C53.5486 63.2204 53.7302 63.4535 53.9667 63.6202C54.2032 63.787 54.4839 63.8798 54.7733 63.887C55.0069 63.887 55.2405 63.8944 55.4729 63.8944C59.294 63.9035 63.079 63.1551 66.6087 61.6927C70.1385 60.2302 73.3429 58.0827 76.0364 55.3744C76.1725 55.2393 76.2804 55.0784 76.3539 54.9013C76.4273 54.7241 76.4648 54.5342 76.4642 54.3424" fill="#FF7E31"/>
<path d="M35.1615 54.3472C35.1612 53.9602 35.0072 53.5892 34.7333 53.3155C34.4594 53.0419 34.0881 52.888 33.7008 52.8877H1.46066C1.07327 52.8877 0.701741 53.0415 0.427814 53.3152C0.153888 53.5889 0 53.9601 0 54.3472C0 54.7343 0.153888 55.1055 0.427814 55.3792C0.701741 55.653 1.07327 55.8067 1.46066 55.8067H33.7008C34.0881 55.8064 34.4594 55.6525 34.7333 55.3789C35.0072 55.1052 35.1612 54.7342 35.1615 54.3472Z" fill="#FF7E31"/>
<path d="M47.2829 52.8828H40.9337C40.5538 52.8938 40.1932 53.0523 39.9283 53.3247C39.6635 53.5971 39.5154 53.9619 39.5154 54.3417C39.5154 54.7214 39.6635 55.0862 39.9283 55.3586C40.1932 55.631 40.5538 55.7896 40.9337 55.8006H59.9911C60.3709 55.7896 60.7316 55.631 60.9964 55.3586C61.2612 55.0862 61.4093 54.7214 61.4093 54.3417C61.4093 53.9619 61.2612 53.5971 60.9964 53.3247C60.7316 53.0523 60.3709 52.8938 59.9911 52.8828C53.0479 52.8746 46.3915 50.1151 41.482 45.2094C36.5724 40.3037 33.8107 33.6524 33.8025 26.7147C33.8082 26.5196 33.7746 26.3253 33.7038 26.1433C33.633 25.9614 33.5263 25.7955 33.3902 25.6554C33.2541 25.5154 33.0912 25.4041 32.9112 25.3281C32.7313 25.2521 32.5379 25.2129 32.3425 25.2129C32.1471 25.2129 31.9537 25.2521 31.7737 25.3281C31.5938 25.4041 31.4309 25.5154 31.2948 25.6554C31.1586 25.7955 31.052 25.9614 30.9812 26.1433C30.9104 26.3253 30.8768 26.5196 30.8825 26.7147C30.863 32.179 32.3931 37.5369 35.2954 42.1681C38.1977 46.7993 42.3535 50.5143 47.2816 52.8828" fill="#FF7E31"/>
<path d="M49.0319 45.5434C49.3205 45.5431 49.6026 45.4574 49.8425 45.2971C50.0825 45.1368 50.2695 44.9091 50.38 44.6426C50.4905 44.3762 50.5195 44.083 50.4634 43.8001C50.4073 43.5173 50.2685 43.2573 50.0647 43.0531C47.6326 40.6232 45.7034 37.7383 44.3872 34.5633C43.0709 31.3883 42.3935 27.9854 42.3935 24.5488C42.3935 21.1121 43.0709 17.7092 44.3872 14.5342C45.7034 11.3592 47.6326 8.47435 50.0647 6.0444C50.2026 5.90938 50.3123 5.74838 50.3875 5.57072C50.4628 5.39307 50.502 5.20227 50.503 5.00936C50.504 4.81646 50.4667 4.62528 50.3932 4.44687C50.3198 4.26846 50.2117 4.10637 50.0752 3.96996C49.9387 3.83356 49.7765 3.72555 49.5979 3.65217C49.4194 3.5788 49.228 3.54152 49.035 3.5425C48.8419 3.54347 48.651 3.58268 48.4732 3.65785C48.2954 3.73302 48.1343 3.84266 47.9991 3.98044C42.5403 9.43528 39.4736 16.8334 39.4736 24.5475C39.4736 32.2616 42.5403 39.6598 47.9991 45.1146C48.1343 45.2507 48.2953 45.3586 48.4726 45.432C48.6499 45.5054 48.84 45.5428 49.0319 45.5422" fill="#FF7E31"/>
<path d="M48.5422 30.5454C48.9295 30.545 49.3008 30.3912 49.5747 30.1175C49.8485 29.8439 50.0025 29.4728 50.0028 29.0858C50.011 22.1481 52.7727 15.4969 57.6823 10.5912C62.5918 5.68552 69.2482 2.92593 76.1914 2.9178C76.5712 2.90678 76.9319 2.74825 77.1967 2.47585C77.4615 2.20346 77.6096 1.83865 77.6096 1.4589C77.6096 1.07914 77.4615 0.714342 77.1967 0.441947C76.9319 0.169552 76.5712 0.0110167 76.1914 0C68.474 0.00845541 61.0751 3.0756 55.6182 8.52846C50.1613 13.9813 47.0921 21.3745 47.084 29.0858C47.0843 29.4728 47.2383 29.8439 47.5121 30.1175C47.786 30.3912 48.1573 30.545 48.5446 30.5454" fill="#FF7E31"/>
<path d="M57.7756 19.1655C58.054 19.4307 58.4238 19.5787 58.8084 19.5787C59.1931 19.5787 59.5629 19.4307 59.8412 19.1655C64.7566 14.265 71.4165 11.5129 78.3601 11.5129C85.3036 11.5129 91.9636 14.265 96.8789 19.1655C97.0141 19.3032 97.1752 19.4129 97.353 19.488C97.5308 19.5632 97.7217 19.6024 97.9148 19.6034C98.1078 19.6044 98.2992 19.5671 98.4777 19.4937C98.6563 19.4203 98.8185 19.3123 98.955 19.1759C99.0915 19.0395 99.1996 18.8774 99.273 18.699C99.3464 18.5206 99.3838 18.3294 99.3828 18.1365C99.3818 17.9436 99.3426 17.7528 99.2673 17.5752C99.1921 17.3975 99.0824 17.2365 98.9445 17.1015C93.4815 11.6538 86.0787 8.59424 78.3607 8.59424C70.6426 8.59424 63.2399 11.6538 57.7769 17.1015C57.5033 17.3754 57.3496 17.7465 57.3496 18.1335C57.3496 18.5204 57.5033 18.8916 57.7769 19.1655" fill="#FF7E31"/>
<path d="M49.7887 62.4361C49.7884 62.0491 49.6344 61.678 49.3605 61.4044C49.0867 61.1308 48.7153 60.9769 48.328 60.9766H19.6116C19.2318 60.9876 18.8711 61.1461 18.6063 61.4185C18.3415 61.6909 18.1934 62.0557 18.1934 62.4355C18.1934 62.8152 18.3415 63.18 18.6063 63.4524C18.8711 63.7248 19.2318 63.8833 19.6116 63.8944H48.328C48.7153 63.894 49.0867 63.7402 49.3605 63.4665C49.6344 63.1929 49.7884 62.8218 49.7887 62.4349" fill="#FF7E31"/>
<path d="M50.9881 69.069H37.7648C37.5694 69.0633 37.375 69.0968 37.1929 69.1676C37.0108 69.2384 36.8448 69.3449 36.7046 69.481C36.5645 69.617 36.4531 69.7797 36.377 69.9596C36.3009 70.1394 36.2617 70.3326 36.2617 70.5279C36.2617 70.7231 36.3009 70.9163 36.377 71.0962C36.4531 71.276 36.5645 71.4387 36.7046 71.5748C36.8448 71.7108 37.0108 71.8173 37.1929 71.8881C37.375 71.9589 37.5694 71.9924 37.7648 71.9868H50.9893C51.1846 71.9924 51.3791 71.9589 51.5612 71.8881C51.7433 71.8173 51.9093 71.7108 52.0495 71.5748C52.1896 71.4387 52.301 71.276 52.3771 71.0962C52.4532 70.9163 52.4924 70.7231 52.4924 70.5279C52.4924 70.3326 52.4532 70.1394 52.3771 69.9596C52.301 69.7797 52.1896 69.617 52.0495 69.481C51.9093 69.3449 51.7433 69.2384 51.5612 69.1676C51.3791 69.0968 51.1846 69.0633 50.9893 69.069" fill="#FF7E31"/>
</svg>
